<svg xmlns="http://www.w3.org/2000/svg" width="101" height="100" viewBox="0 0 101 100" fill="none">
  <path d="M38.6667 45.2923C38.25 45.2506 37.75 45.2506 37.2917 45.2923C27.375 44.959 19.5 36.834 19.5 26.834C19.5 16.6257 27.75 8.33398 38 8.33398C48.2083 8.33398 56.5 16.6257 56.5 26.834C56.4583 36.834 48.5833 44.959 38.6667 45.2923Z" stroke="#003BC6" stroke-width="3" stroke-linecap="round" stroke-linejoin="round"/>
  <path opacity="0.4" d="M68.8737 16.666C76.957 16.666 83.457 23.2077 83.457 31.2493C83.457 39.1243 77.207 45.541 69.4154 45.8327C69.082 45.791 68.707 45.791 68.332 45.8327" stroke="#003BC6" stroke-width="3" stroke-linecap="round" stroke-linejoin="round"/>
  <path d="M17.832 60.666C7.7487 67.416 7.7487 78.416 17.832 85.1244C29.2904 92.791 48.082 92.791 59.5404 85.1244C69.6237 78.3744 69.6237 67.3744 59.5404 60.666C48.1237 53.041 29.332 53.041 17.832 60.666Z" stroke="#003BC6" stroke-width="3" stroke-linecap="round" stroke-linejoin="round"/>
  <path opacity="0.4" d="M76.918 83.334C79.918 82.709 82.7513 81.5006 85.0846 79.709C91.5846 74.834 91.5846 66.7923 85.0846 61.9173C82.793 60.1673 80.0013 59.0007 77.043 58.334" stroke="#003BC6" stroke-width="3" stroke-linecap="round" stroke-linejoin="round"/>
</svg>