<svg xmlns="http://www.w3.org/2000/svg" width="36" height="37" viewBox="0 0 36 37" fill="none">
  <path d="M35.9975 18.4957C35.9975 27.5869 29.2588 35.1027 20.5048 36.3223C19.6862 36.4358 18.8488 36.4951 17.9987 36.4951C17.0175 36.4951 16.054 36.4169 15.1156 36.2656C6.54568 34.8858 0 27.4544 0 18.4957C0 8.55453 8.05914 0.495117 18 0.495117C27.9409 0.495117 36 8.55453 36 18.4957H35.9975Z" fill="#2F4D56"/>
  <path d="M20.5033 14.9488V18.8701H25.3539L24.5858 24.1522H20.5033V36.322C19.6848 36.4356 18.8473 36.4948 17.9973 36.4948C17.016 36.4948 16.0525 36.4166 15.1141 36.2653V24.1522H10.6406V18.8701H15.1141V14.0723C15.1141 11.0957 17.5268 8.68164 20.5046 8.68164V8.68417C20.5134 8.68417 20.521 8.68164 20.5298 8.68164H25.3552V13.2499H22.2021C21.2651 13.2499 20.5046 14.0104 20.5046 14.9476L20.5033 14.9488Z" fill="#16BFF1"/>
</svg>