<svg xmlns="http://www.w3.org/2000/svg" width="36" height="37" viewBox="0 0 36 37" fill="none">
  <path d="M18.041 0.495117H17.959C8.04052 0.495117 0 8.53801 0 18.4594V18.5414C0 28.4628 8.04052 36.5057 17.959 36.5057H18.041C27.9595 36.5057 36 28.4628 36 18.5414V18.4594C36 8.53801 27.9595 0.495117 18.041 0.495117Z" fill="#2F4D56"/>
  <path d="M23.5798 7.82129H12.4404C9.36297 7.82129 6.85938 10.3256 6.85938 13.404V23.5979C6.85938 26.6763 9.36297 29.1806 12.4404 29.1806H23.5798C26.6573 29.1806 29.1609 26.6763 29.1609 23.5979V13.404C29.1609 10.3256 26.6573 7.82129 23.5798 7.82129ZM8.8282 13.404C8.8282 11.4119 10.4489 9.79069 12.4404 9.79069H23.5798C25.5714 9.79069 27.1921 11.4119 27.1921 13.404V23.5979C27.1921 25.59 25.5714 27.2112 23.5798 27.2112H12.4404C10.4489 27.2112 8.8282 25.59 8.8282 23.5979V13.404Z" fill="#16BFF1"/>
  <path d="M18.0116 23.6933C20.8734 23.6933 23.203 21.3644 23.203 18.5005C23.203 15.6366 20.8747 13.3076 18.0116 13.3076C15.1486 13.3076 12.8203 15.6366 12.8203 18.5005C12.8203 21.3644 15.1486 23.6933 18.0116 23.6933ZM18.0116 15.2783C19.7888 15.2783 21.2341 16.7241 21.2341 18.5017C21.2341 20.2794 19.7888 21.7252 18.0116 21.7252C16.2345 21.7252 14.7891 20.2794 14.7891 18.5017C14.7891 16.7241 16.2345 15.2783 18.0116 15.2783Z" fill="#16BFF1"/>
  <path d="M23.6874 14.1451C24.4578 14.1451 25.0857 13.5183 25.0857 12.7464C25.0857 11.9745 24.459 11.3477 23.6874 11.3477C22.9157 11.3477 22.2891 11.9745 22.2891 12.7464C22.2891 13.5183 22.9157 14.1451 23.6874 14.1451Z" fill="#16BFF1"/>
</svg>