<svg xmlns="http://www.w3.org/2000/svg" width="36" height="37" viewBox="0 0 36 37" fill="none">
  <path d="M18.041 0.495117H17.959C8.04053 0.495117 0 8.53801 0 18.4594V18.5414C0 28.4628 8.04053 36.5057 17.959 36.5057H18.041C27.9595 36.5057 36 28.4628 36 18.5414V18.4594C36 8.53801 27.9595 0.495117 18.041 0.495117Z" fill="#2F4D56"/>
  <path d="M8.58507 12.4647C8.11084 12.0244 7.875 11.4793 7.875 10.8309C7.875 10.1824 8.1121 9.6134 8.58507 9.17183C9.0593 8.73153 9.66975 8.51074 10.4177 8.51074C11.1656 8.51074 11.7521 8.73153 12.2251 9.17183C12.6993 9.61214 12.9351 10.166 12.9351 10.8309C12.9351 11.4958 12.698 12.0244 12.2251 12.4647C11.7508 12.905 11.1492 13.1258 10.4177 13.1258C9.68615 13.1258 9.0593 12.905 8.58507 12.4647ZM12.5366 14.9904V28.4898H8.27228V14.9904H12.5366Z" fill="#16BFF1"/>
  <path d="M26.7265 16.3245C27.656 17.3338 28.1201 18.7191 28.1201 20.4828V28.2519H24.0703V21.0304C24.0703 20.1409 23.8395 19.4495 23.3791 18.9575C22.9188 18.4655 22.2982 18.2182 21.5213 18.2182C20.7444 18.2182 20.1238 18.4642 19.6634 18.9575C19.2031 19.4495 18.9723 20.1409 18.9723 21.0304V28.2519H14.8984V14.9531H18.9723V16.7169C19.3847 16.1289 19.9409 15.6647 20.6397 15.3228C21.3384 14.9809 22.1242 14.8105 22.9982 14.8105C24.5546 14.8105 25.7982 15.3152 26.7265 16.3232V16.3245Z" fill="#16BFF1"/>
</svg>