<svg xmlns="http://www.w3.org/2000/svg" width="100" height="100" viewBox="0 0 100 100" fill="none">
  <path d="M50 79.1673C63.7917 79.1673 75 67.959 75 54.1673V33.334C75 19.5423 63.7917 8.33398 50 8.33398C36.2083 8.33398 25 19.5423 25 33.334V54.1673C25 67.959 36.2083 79.1673 50 79.1673Z" stroke="#003BC6" stroke-width="3" stroke-linecap="round" stroke-linejoin="round"/>
  <path opacity="0.4" d="M12.5 45.834V54.1673C12.5 74.8756 29.2917 91.6673 50 91.6673C70.7083 91.6673 87.5 74.8756 87.5 54.1673V45.834" stroke="#003BC6" stroke-width="3" stroke-linecap="round" stroke-linejoin="round"/>
  <path opacity="0.4" d="M37.957 31.167C45.3737 28.4587 53.457 28.4587 60.8737 31.167" stroke="#003BC6" stroke-width="3" stroke-linecap="round" stroke-linejoin="round"/>
  <path opacity="0.4" d="M41.793 43.667C46.793 42.292 52.0846 42.292 57.0846 43.667" stroke="#003BC6" stroke-width="3" stroke-linecap="round" stroke-linejoin="round"/>
</svg>