<svg xmlns="http://www.w3.org/2000/svg" width="25" height="24" viewBox="0 0 25 24" fill="none">
  <path d="M21.8438 21L15.8438 15M3.84375 10C3.84375 10.9193 4.02481 11.8295 4.37659 12.6788C4.72838 13.5281 5.24399 14.2997 5.894 14.9497C6.54401 15.5998 7.31569 16.1154 8.16497 16.4672C9.01425 16.8189 9.9245 17 10.8438 17C11.763 17 12.6733 16.8189 13.5225 16.4672C14.3718 16.1154 15.1435 15.5998 15.7935 14.9497C16.4435 14.2997 16.9591 13.5281 17.3109 12.6788C17.6627 11.8295 17.8438 10.9193 17.8438 10C17.8438 9.08075 17.6627 8.1705 17.3109 7.32122C16.9591 6.47194 16.4435 5.70026 15.7935 5.05025C15.1435 4.40024 14.3718 3.88463 13.5225 3.53284C12.6733 3.18106 11.763 3 10.8438 3C9.9245 3 9.01425 3.18106 8.16497 3.53284C7.31569 3.88463 6.54401 4.40024 5.894 5.05025C5.24399 5.70026 4.72838 6.47194 4.37659 7.32122C4.02481 8.1705 3.84375 9.08075 3.84375 10Z" stroke="#004CFF" stroke-width="2" stroke-linecap="round" stroke-linejoin="round"/>
</svg>