<svg xmlns="http://www.w3.org/2000/svg" width="26" height="30" viewBox="0 0 26 30" fill="none">
  <path d="M13.2097 12.987C13.085 12.9693 12.9248 12.9693 12.7824 12.987C9.64883 12.8805 7.15625 10.3238 7.15625 7.18111C7.15625 3.96743 9.75566 1.35742 12.996 1.35742C16.2186 1.35742 18.8358 3.96743 18.8358 7.18111C18.818 10.3238 16.3432 12.8805 13.2097 12.987Z" fill="white" stroke="white" stroke-width="1.5" stroke-linecap="round" stroke-linejoin="round"/>
  <path d="M25 23.9907C21.8309 26.8848 17.6291 28.6426 13 28.6426C8.37092 28.6426 4.16914 26.8848 1 23.9907C1.17804 22.3217 2.24629 20.6883 4.15134 19.4099C9.02967 16.1785 17.0059 16.1785 21.8487 19.4099C23.7537 20.6883 24.822 22.3217 25 23.9907Z" fill="white" stroke="white" stroke-width="1.5" stroke-linecap="round" stroke-linejoin="round"/>
</svg>