<svg xmlns="http://www.w3.org/2000/svg" width="36" height="37" viewBox="0 0 36 37" fill="none">
  <path d="M35.9975 18.5004C35.9975 27.5939 29.2588 35.1117 20.5048 36.3316C19.6862 36.4452 18.8488 36.5045 17.9987 36.5045C17.0175 36.5045 16.054 36.4263 15.1156 36.2749C6.54568 34.8947 0 27.4614 0 18.5004C0 8.55663 8.05913 0.495117 18 0.495117C27.9409 0.495117 36 8.55663 36 18.5004H35.9975Z" fill="#2F4D56"/>
  <path d="M7.30171 8.43652L15.603 19.5384L7.25 28.5651H9.13047L16.4442 20.6625L22.353 28.5651H28.7511L19.9832 16.8387L27.7586 8.43652H25.8781L19.1432 15.7146L13.7011 8.43652H7.30296H7.30171ZM10.0663 9.82174H13.0049L25.984 27.1799H23.0454L10.0663 9.82174Z" fill="#16BFF1"/>
</svg>