<svg xmlns="http://www.w3.org/2000/svg" width="91" height="28" viewBox="0 0 91 28" fill="none">
  <path d="M22.6462 23.5258C22.7636 25.8524 20.5447 27.8521 17.69 27.9922C14.8354 28.1327 12.426 26.3604 12.3085 24.0337C12.1911 21.7072 14.4101 19.7074 17.2647 19.5672C20.1194 19.427 22.5288 21.1993 22.6462 23.5258Z" fill="#A6A6A4"/>
  <path d="M12.4978 18.8488C12.5613 20.1083 11.9085 21.1639 11.0397 21.2065C10.1709 21.2492 9.41507 20.2628 9.35148 19.0033C9.28792 17.7439 9.9407 16.6882 10.8095 16.6456C11.6783 16.6029 12.4342 17.5893 12.4978 18.8488Z" fill="#A6A6A4"/>
  <path d="M16.417 16.1162C16.4805 17.3757 15.8278 18.4313 14.959 18.474C14.0902 18.5167 13.3343 17.5303 13.2708 16.2708C13.2072 15.0113 13.8599 13.9557 14.7287 13.913C15.5976 13.8703 16.3534 14.8568 16.417 16.1162Z" fill="#A6A6A4"/>
  <path d="M20.4595 15.9173C20.5231 17.1767 19.8703 18.2324 19.0015 18.2751C18.1326 18.3177 17.3768 17.3313 17.3132 16.0718C17.2497 14.8123 17.9024 13.7568 18.7712 13.7141C19.64 13.6714 20.3959 14.6578 20.4595 15.9173Z" fill="#A6A6A4"/>
  <path d="M24.6345 18.2528C24.698 19.5123 24.0452 20.5679 23.1764 20.6106C22.3076 20.6532 21.5518 19.6668 21.4882 18.4074C21.4246 17.1479 22.0774 16.0923 22.9462 16.0496C23.815 16.0069 24.5709 16.9933 24.6345 18.2528Z" fill="#A6A6A4"/>
  <path d="M9.15944 12.7673C7.81639 14.6831 4.82194 14.936 2.47119 13.332C0.120397 11.7281 -0.696512 8.87466 0.646542 6.95881C1.9896 5.04292 4.98404 4.79007 7.3348 6.39405C9.68559 7.99803 10.5025 10.8514 9.15944 12.7673Z" fill="#A6A6A4"/>
  <path d="M3.99784 2.95994C3.27076 3.99712 2.10139 4.44215 1.38593 3.95399C0.670501 3.46583 0.679904 2.2293 1.40695 1.19216C2.13404 0.154975 3.30341 -0.290052 4.01887 0.198108C4.73434 0.686268 4.72489 1.92279 3.99784 2.95994Z" fill="#A6A6A4"/>
  <path d="M8.79116 3.14631C8.06411 4.18345 6.8947 4.62852 6.17928 4.14036C5.46381 3.65216 5.47322 2.41567 6.20027 1.37849C6.92736 0.341345 8.09672 -0.103721 8.81219 0.384439C9.52765 0.872599 9.51825 2.10913 8.79116 3.14631Z" fill="#A6A6A4"/>
  <path d="M12.1246 5.41934C11.3976 6.45648 10.2282 6.90155 9.51272 6.41339C8.79729 5.92523 8.80669 4.6887 9.53374 3.65152C10.2608 2.61438 11.4302 2.16931 12.1457 2.65747C12.8611 3.14563 12.8517 4.38216 12.1246 5.41934Z" fill="#A6A6A4"/>
  <path d="M13.9913 9.77876C13.2642 10.8159 12.0948 11.261 11.3794 10.7728C10.6639 10.2847 10.6733 9.04813 11.4004 8.01098C12.1275 6.9738 13.2969 6.52873 14.0123 7.01693C14.7278 7.50509 14.7184 8.74162 13.9913 9.77876Z" fill="#A6A6A4"/>
  <path d="M32.4195 22.39C31.2932 21.8422 30.3731 21.1301 29.6594 20.2537C28.9453 19.3617 28.4141 18.4069 28.0649 17.3896C27.7317 16.3568 27.5651 15.3552 27.5651 14.3849V13.8683C27.5651 12.8042 27.7396 11.7555 28.0888 10.7226C28.4379 9.67407 28.9691 8.7271 29.6828 7.88198C30.4128 7.03686 31.3249 6.36396 32.4195 5.86323C33.5299 5.34666 34.8383 5.08845 36.3455 5.08845C37.9162 5.08845 39.3039 5.37801 40.5096 5.95709C41.7153 6.53614 42.675 7.34208 43.3891 8.37507C44.1187 9.39237 44.5471 10.5895 44.6737 11.9669H40.7477C40.637 11.2781 40.3827 10.6914 39.9863 10.2061C39.5896 9.72092 39.0742 9.34537 38.4399 9.07933C37.821 8.81329 37.1227 8.68029 36.3455 8.68029C35.5683 8.68029 34.8784 8.81329 34.2754 9.07933C33.6727 9.34537 33.1653 9.72092 32.7527 10.2061C32.621 10.3671 32.4988 10.5383 32.3865 10.7199C32.3556 10.7699 32.325 10.8208 32.2957 10.8724L32.2548 10.9452C32.2247 11.0004 32.1949 11.0564 32.1664 11.1132C32.1211 11.2028 32.0775 11.2946 32.0366 11.3886C32.0144 11.4392 31.9934 11.4903 31.9724 11.542C31.9553 11.5835 31.9386 11.6256 31.9224 11.668C31.8882 11.758 31.8557 11.8497 31.8248 11.9434C31.6181 12.6006 31.5149 13.3362 31.5149 14.15C31.5149 14.9483 31.6181 15.6837 31.8248 16.3568C31.849 16.4287 31.8744 16.4996 31.9005 16.5695L31.9414 16.6733C32.1533 17.2016 32.4314 17.6751 32.7761 18.0939C33.2046 18.5791 33.7283 18.9547 34.3468 19.2207C34.9657 19.4712 35.6715 19.5964 36.4645 19.5964C37.6702 19.5964 38.6854 19.3069 39.5106 18.7278C40.3513 18.1487 40.8587 17.3506 41.0333 16.3333H44.9359C44.7927 17.5853 44.3647 18.7356 43.6505 19.7843C42.9531 20.8171 41.993 21.6465 40.7715 22.2726C39.5658 22.883 38.13 23.1883 36.4645 23.1883C34.8943 23.1883 33.5458 22.922 32.4195 22.39Z" fill="#A6A6A4"/>
  <path d="M46.2874 22.7418V5.60446H50.1186V22.7418H46.2874Z" fill="#A6A6A4"/>
  <path d="M53.5449 21.7088C54.3539 22.6634 55.5119 23.1408 57.0191 23.1408H57.1857C58.1692 23.1408 59.2031 23.1643 59.8692 22.7418C60.3282 22.4509 60.9618 22.041 61.4208 21.5328V22.7418H64.4431V9.87704H60.6361V17.4362C60.6361 18.1561 60.4219 18.7274 59.9934 19.15C59.5653 19.5725 59.0099 19.7839 58.3279 19.7839C57.6614 19.7839 57.1302 19.5804 56.7335 19.1734C56.3371 18.7666 56.1388 18.2189 56.1388 17.5301V9.87704H52.3313V17.3424C52.3313 19.283 52.736 20.7385 53.5449 21.7088Z" fill="#A6A6A4"/>
  <path fill-rule="evenodd" clip-rule="evenodd" d="M72.5585 23.1882C71.4481 23.1882 70.4642 23.0003 69.6076 22.6247C68.767 22.249 68.0612 21.7483 67.4899 21.1222C66.9349 20.4806 66.5064 19.7685 66.2049 18.9859C65.9192 18.1878 65.7768 17.3738 65.7768 16.5444V16.075C65.7768 15.2142 65.9192 14.3924 66.2049 13.61C66.5064 12.8119 66.9349 12.0998 67.4899 11.4737C68.0453 10.8476 68.7352 10.3547 69.56 9.99469C70.4007 9.61913 71.3528 9.43126 72.4153 9.43126C73.8114 9.43126 74.9853 9.7443 75.9371 10.3704C76.9051 10.9808 77.6426 11.7868 78.15 12.7884C78.6579 13.7744 78.9114 14.8542 78.9114 16.028V17.2957H69.3874C69.4418 17.6769 69.5315 18.0292 69.6552 18.3522C69.8774 18.9156 70.2265 19.3538 70.7022 19.6667C71.1783 19.9797 71.7968 20.1362 72.5585 20.1362C73.256 20.1362 73.8273 20.0032 74.2716 19.7372C74.4799 19.6122 74.6572 19.4735 74.8028 19.3209C74.9675 19.1485 75.0916 18.9588 75.1758 18.7512H78.6737C78.4833 19.612 78.1108 20.3787 77.5549 21.0519C76.9999 21.7248 76.3021 22.249 75.4614 22.6247C74.6207 23.0003 73.6527 23.1882 72.5585 23.1882ZM69.4354 15.0596C69.4287 15.0925 69.4224 15.1258 69.4168 15.1594H75.296C75.2408 14.7986 75.1531 14.47 75.0329 14.1734C74.8108 13.6257 74.4779 13.211 74.0336 12.9292C73.6051 12.6319 73.0659 12.4832 72.4153 12.4832C72.2939 12.4832 72.1753 12.4882 72.0602 12.4981C71.9464 12.5081 71.8357 12.5228 71.7286 12.5425C71.3528 12.6112 71.0188 12.7402 70.7264 12.9292C70.2658 13.2266 69.9167 13.6649 69.679 14.2439C69.654 14.3028 69.6306 14.3632 69.608 14.4249C69.585 14.4888 69.5636 14.5541 69.5434 14.621C69.5017 14.7605 69.4656 14.9067 69.4354 15.0596Z" fill="#A6A6A4"/>
  <path d="M80.8393 22.0143C81.8863 22.7656 83.3379 23.1411 85.1938 23.1411C86.3678 23.1411 87.3909 22.9768 88.2637 22.6481C89.1362 22.3039 89.8102 21.8186 90.2859 21.1927C90.762 20.5509 91 19.7997 91 18.9389C91 17.7496 90.5556 16.8028 89.6674 16.0983C88.7787 15.3941 87.5338 14.956 85.9318 14.7838L84.9086 14.6898C84.2262 14.6116 83.7347 14.4786 83.4331 14.2907C83.3106 14.2145 83.213 14.1241 83.1404 14.0194C83.034 13.8663 82.9809 13.6828 82.9809 13.4691C82.9809 13.0936 83.1554 12.7962 83.5046 12.577C83.8533 12.358 84.3214 12.2485 84.9086 12.2485C85.6536 12.2485 86.217 12.3972 86.5975 12.6944C86.9783 12.9761 87.2005 13.3283 87.264 13.7509H90.6429C90.5957 12.3737 90.0558 11.325 89.0251 10.6051C87.994 9.8695 86.6375 9.50178 84.9562 9.50178C83.9088 9.50178 82.9733 9.6583 82.1481 9.97135C81.3388 10.2842 80.7044 10.7459 80.2446 11.3564C79.7848 11.9668 79.5543 12.7257 79.5543 13.6335C79.5543 14.729 79.9431 15.629 80.7203 16.3332C81.5138 17.0375 82.6952 17.4678 84.2659 17.6244L85.2894 17.7182C86.146 17.812 86.7407 17.9764 87.0739 18.2113C87.4068 18.4303 87.5734 18.7277 87.5734 19.1033C87.5734 19.5258 87.3513 19.8545 86.9073 20.0892C86.4789 20.3084 85.9318 20.4179 85.2652 20.4179C84.3928 20.4179 83.7347 20.2614 83.2899 19.9483C82.8618 19.6198 82.6159 19.2519 82.5528 18.845H79.1734C79.2373 20.2067 79.7923 21.263 80.8393 22.0143Z" fill="#A6A6A4"/>
</svg>