<svg xmlns="http://www.w3.org/2000/svg" width="106" height="30" viewBox="0 0 106 30" fill="none">
  <path d="M50.1558 18.0006V28.2912H53.6467V17.3318C53.6467 15.9448 53.3363 14.7188 52.7159 13.6538C52.0952 12.5888 51.2419 11.7591 50.1558 11.1647C49.0953 10.5703 47.867 10.2731 46.4705 10.2731C45.074 10.2731 43.8196 10.5827 42.7078 11.2019C41.8703 11.6496 41.172 12.2238 40.613 12.9246V1.76553H37.1221V28.2912H40.613V18.0006C40.613 17.1088 40.8198 16.3163 41.2338 15.6228C41.6473 14.9293 42.2163 14.3844 42.9407 13.9882C43.6646 13.5919 44.4922 13.3938 45.4233 13.3938C46.8195 13.3938 47.9574 13.8272 48.8368 14.6941C49.7161 15.5609 50.1558 16.663 50.1558 18.0006Z" fill="#A6A6A4"/>
  <path d="M59.7694 27.6964C60.9849 28.3406 62.3553 28.6624 63.8811 28.6624C65.4326 28.6624 66.7906 28.3406 67.9542 27.6964C69.1436 27.0277 70.0747 26.1113 70.7473 24.9473C71.4195 23.7832 71.7556 22.4334 71.7556 20.8979V10.6443H68.2646V20.7494C68.2646 22.2108 67.8767 23.3621 67.1006 24.2043C66.3248 25.0218 65.2519 25.4303 63.8811 25.4303C62.9761 25.4303 62.1874 25.2445 61.5149 24.873C60.8423 24.5016 60.3252 23.969 59.9634 23.2756C59.6269 22.5573 59.459 21.7151 59.459 20.7494V10.6443H55.9677V20.8979C55.9677 22.4334 56.3038 23.7832 56.9764 24.9473C57.6486 26.1113 58.5797 27.0277 59.7694 27.6964Z" fill="#A6A6A4"/>
  <path fill-rule="evenodd" clip-rule="evenodd" d="M83.0292 28.6624C81.193 28.6624 79.5379 28.2663 78.0639 27.4737C76.5899 26.6562 75.4258 25.5541 74.5726 24.1673C73.7193 22.7803 73.2925 21.2074 73.2925 19.4489C73.2925 17.7153 73.7064 16.155 74.534 14.768C75.3873 13.3811 76.5252 12.2913 77.9474 11.4987C79.3957 10.6814 81.0119 10.2728 82.7963 10.2728C84.5032 10.2728 86.003 10.6443 87.2959 11.3873C88.6149 12.1303 89.6364 13.1581 90.3604 14.4708C91.1104 15.7835 91.4855 17.2695 91.4855 18.9289C91.4855 19.1766 91.4726 19.4489 91.4465 19.7461C91.4208 20.0188 91.369 20.3407 91.2915 20.7121H76.8617C76.9847 21.3995 77.2044 22.031 77.5206 22.6068C78.0378 23.5232 78.775 24.2416 79.7318 24.7615C80.6887 25.2568 81.7877 25.5045 83.0292 25.5045C84.0635 25.5045 85.0075 25.3314 85.8608 24.9845C86.7402 24.6377 87.4898 24.1177 88.1106 23.424L90.3604 25.616C89.4814 26.6066 88.3953 27.3622 87.102 27.8822C85.8351 28.4024 84.4771 28.6624 83.0292 28.6624ZM77.482 16.1798C77.1922 16.7058 76.9876 17.2878 76.869 17.926H88.0827C87.9875 17.1955 87.7899 16.5515 87.4898 15.994C87.0505 15.1519 86.4298 14.508 85.6279 14.0621C84.8265 13.5916 83.8568 13.3563 82.7188 13.3563C81.5291 13.3563 80.4819 13.604 79.5765 14.0993C78.6714 14.5946 77.9731 15.2881 77.482 16.1798Z" fill="#A6A6A4"/>
  <path d="M93.7421 27.1765C94.5178 27.6468 95.3586 28.0186 96.2636 28.2909C97.1944 28.5386 98.1773 28.6624 99.2117 28.6624C101.28 28.6624 102.923 28.1794 104.138 27.2134C105.38 26.2478 106 24.9349 106 23.2756C106 22.1857 105.754 21.3066 105.263 20.6379C104.797 19.9692 104.19 19.4366 103.44 19.0405C102.69 18.644 101.901 18.3344 101.074 18.1118C100.246 17.8641 99.4446 17.6287 98.6684 17.4057C97.9188 17.1828 97.3109 16.9104 96.8455 16.5884C96.3801 16.2664 96.1472 15.8083 96.1472 15.2139C96.1472 14.6194 96.4058 14.1612 96.923 13.8393C97.4662 13.4925 98.242 13.3191 99.2506 13.3191C100.207 13.3191 101.061 13.4925 101.811 13.8393C102.587 14.186 103.233 14.6814 103.75 15.3253L106 13.1706C105.276 12.2046 104.345 11.4864 103.207 11.0158C102.095 10.5204 100.815 10.2728 99.3667 10.2728C97.9963 10.2728 96.8194 10.4833 95.8368 10.9043C94.88 11.3254 94.1299 11.9322 93.587 12.7247C93.0438 13.4925 92.7723 14.4089 92.7723 15.4739C92.7723 16.5389 93.0052 17.3933 93.4706 18.0372C93.9621 18.6813 94.5825 19.1889 95.3325 19.5604C96.0826 19.9319 96.8712 20.2414 97.6987 20.4891C98.5524 20.7121 99.3539 20.9475 100.104 21.1951C100.854 21.4182 101.461 21.7151 101.927 22.0869C102.418 22.4334 102.664 22.9287 102.664 23.5728C102.664 24.2166 102.367 24.7246 101.772 25.096C101.177 25.4425 100.337 25.616 99.2506 25.616C98.1645 25.616 97.1816 25.4302 96.3022 25.0588C95.4232 24.6626 94.6471 24.0681 93.9749 23.2756L91.7251 25.4302C92.2941 26.099 92.9663 26.6812 93.7421 27.1765Z" fill="#A6A6A4"/>
  <path d="M102.731 4.71913V5.37749H101.903V7.38061H101.117V5.37749H100.29V4.71913H102.731Z" fill="#A6A6A4"/>
  <path d="M105.96 4.67946V7.39283H105.174V6.07603L104.599 6.69454H104.363L103.788 6.07603V7.39283H103.002V4.67946H103.28L104.481 5.83665L105.683 4.67946H105.96Z" fill="#A6A6A4"/>
  <path d="M3.64209 9.04948C4.7293 12.388 8.43651 14.2503 11.9224 13.2091C15.4083 12.1679 23.6647 6.73215 22.5774 3.39364C21.4902 0.0551174 11.4713 0.0780879 7.98537 1.11929C4.49947 2.1605 2.55492 5.71096 3.64209 9.04948Z" fill="#A6A6A4"/>
  <path d="M1.53453 27.3559C3.58057 29.3157 6.89751 29.3157 8.94355 27.3559C10.9896 25.3965 14.6939 18.6718 12.6483 16.7122C10.6022 14.7529 3.58057 18.3007 1.53453 20.2601C-0.51151 22.2195 -0.51151 25.3965 1.53453 27.3559Z" fill="#A6A6A4"/>
  <path d="M21.1131 29.2827C24.6404 30.1878 28.2658 28.183 29.2109 24.8052C30.1556 21.427 29.7739 11.8389 26.247 10.9336C22.7197 10.0286 17.3834 18.1495 16.4382 21.5273C15.493 24.9054 17.5861 28.3775 21.1131 29.2827Z" fill="#A6A6A4"/>
</svg>