<svg xmlns="http://www.w3.org/2000/svg" width="145" height="22" viewBox="0 0 145 22" fill="none">
  <path d="M27.0623 19.824V1.07482H30.4549L39.1752 14.2797V1.07482H42.5678V19.824H39.1752L30.4549 6.64601V19.824H27.0623Z" fill="#A6A6A4"/>
  <path d="M51.1487 20.1455C49.8233 20.1455 48.6484 19.8598 47.6235 19.2882C46.5987 18.7169 45.7947 17.9133 45.2115 16.8777C44.6283 15.8421 44.3368 14.6456 44.3368 13.2885C44.3368 11.9136 44.6195 10.6904 45.1851 9.61905C45.768 8.54766 46.5632 7.71733 47.5705 7.12807C48.5953 6.52096 49.797 6.21738 51.1751 6.21738C52.4653 6.21738 53.6048 6.50309 54.5944 7.0745C55.5841 7.64591 56.3526 8.43159 56.9004 9.43154C57.466 10.4136 57.7487 11.5118 57.7487 12.7261C57.7487 12.9225 57.7399 13.1278 57.722 13.3421C57.722 13.5564 57.7132 13.7795 57.6956 14.0118H47.703C47.7737 15.0474 48.127 15.8599 48.7633 16.4492C49.4169 17.0383 50.2034 17.3331 51.1223 17.3331C51.8114 17.3331 52.3856 17.1812 52.845 16.8777C53.3221 16.5562 53.6755 16.1455 53.9053 15.6456H57.3511C57.1036 16.4848 56.6884 17.2526 56.1051 17.9492C55.5398 18.6277 54.8331 19.1632 53.9848 19.5561C53.1544 19.949 52.209 20.1455 51.1487 20.1455ZM51.1751 9.00301C50.3447 9.00301 49.6113 9.24406 48.9753 9.72619C48.339 10.1905 47.9326 10.9047 47.7561 11.869H54.303C54.2499 10.994 53.9317 10.2976 53.3488 9.77974C52.7656 9.26192 52.041 9.00301 51.1751 9.00301Z" fill="#A6A6A4"/>
  <path d="M57.1255 19.8242L61.8963 13.1816L57.1255 6.53897H60.7568L64.0964 11.2531L67.4096 6.53897H71.0673L66.2698 13.1816L71.0673 19.8242H67.4096L64.0964 15.1101L60.7568 19.8242H57.1255Z" fill="#A6A6A4"/>
  <path d="M77.7593 19.8241C76.3809 19.8241 75.2766 19.4848 74.4459 18.8063C73.6154 18.1277 73.2002 16.9226 73.2002 15.1904V9.40492H70.9473V6.53894H73.2002L73.5978 2.97659H76.5929V6.53894H80.1447V9.40492H76.5929V15.2173C76.5929 15.86 76.7254 16.3066 76.9905 16.5564C77.2731 16.7887 77.7502 16.9045 78.4217 16.9045H80.0652V19.8241H77.7593Z" fill="#A6A6A4"/>
  <path d="M81.7347 19.824V6.53879H84.73L85.0215 8.33336C85.4455 7.69054 86.0023 7.18165 86.6914 6.80666C87.3981 6.41381 88.2109 6.21738 89.1299 6.21738C91.1619 6.21738 92.602 7.01201 93.4503 8.60123C93.9273 7.8691 94.5634 7.28877 95.3586 6.86023C96.1714 6.43167 97.0549 6.21738 98.0091 6.21738C99.7233 6.21738 101.04 6.73522 101.959 7.7709C102.877 8.80658 103.337 10.3244 103.337 12.3243V19.824H99.9441V12.6457C99.9441 11.5029 99.7233 10.6279 99.2814 10.0208C98.8574 9.4137 98.1947 9.11012 97.2936 9.11012C96.3746 9.11012 95.6325 9.4494 95.0671 10.1279C94.5194 10.8065 94.2455 11.7529 94.2455 12.9671V19.824H90.8526V12.6457C90.8526 11.5029 90.6318 10.6279 90.1901 10.0208C89.7483 9.4137 89.068 9.11012 88.149 9.11012C87.2479 9.11012 86.5146 9.4494 85.9492 10.1279C85.4015 10.8065 85.1276 11.7529 85.1276 12.9671V19.824H81.7347Z" fill="#A6A6A4"/>
  <path d="M111.54 20.1455C110.268 20.1455 109.119 19.8507 108.094 19.2616C107.087 18.6722 106.283 17.8597 105.682 16.8241C105.099 15.7707 104.808 14.5564 104.808 13.1814C104.808 11.8064 105.108 10.6011 105.709 9.56547C106.31 8.51195 107.114 7.69054 108.121 7.10129C109.146 6.51203 110.294 6.21738 111.566 6.21738C112.821 6.21738 113.952 6.51203 114.959 7.10129C115.984 7.69054 116.788 8.51195 117.371 9.56547C117.972 10.6011 118.272 11.8064 118.272 13.1814C118.272 14.5564 117.972 15.7707 117.371 16.8241C116.788 17.8597 115.984 18.6722 114.959 19.2616C113.934 19.8507 112.795 20.1455 111.54 20.1455ZM111.54 17.1723C112.424 17.1723 113.192 16.8419 113.846 16.1814C114.5 15.5028 114.827 14.5028 114.827 13.1814C114.827 11.86 114.5 10.869 113.846 10.2083C113.192 9.52977 112.432 9.19049 111.566 9.19049C110.665 9.19049 109.888 9.52977 109.234 10.2083C108.598 10.869 108.28 11.86 108.28 13.1814C108.28 14.5028 108.598 15.5028 109.234 16.1814C109.888 16.8419 110.657 17.1723 111.54 17.1723Z" fill="#A6A6A4"/>
  <path d="M122.886 19.8242L118.061 6.53897H121.613L124.953 16.5833L128.293 6.53897H131.844L126.994 19.8242H122.886Z" fill="#A6A6A4"/>
  <path d="M138.4 20.1455C137.075 20.1455 135.9 19.8598 134.875 19.2882C133.85 18.7169 133.046 17.9133 132.463 16.8777C131.88 15.8421 131.588 14.6456 131.588 13.2885C131.588 11.9136 131.871 10.6904 132.436 9.61905C133.02 8.54766 133.815 7.71733 134.822 7.12807C135.847 6.52096 137.048 6.21738 138.427 6.21738C139.717 6.21738 140.856 6.50309 141.846 7.0745C142.835 7.64591 143.604 8.43159 144.152 9.43154C144.717 10.4136 145 11.5118 145 12.7261C145 12.9225 144.991 13.1278 144.974 13.3421C144.974 13.5564 144.965 13.7795 144.947 14.0118H134.954C135.025 15.0474 135.379 15.8599 136.015 16.4492C136.669 17.0383 137.455 17.3331 138.374 17.3331C139.063 17.3331 139.637 17.1812 140.096 16.8777C140.573 16.5562 140.927 16.1455 141.157 15.6456H144.602C144.355 16.4848 143.94 17.2526 143.357 17.9492C142.791 18.6277 142.084 19.1632 141.236 19.5561C140.406 19.949 139.46 20.1455 138.4 20.1455ZM138.427 9.00301C137.596 9.00301 136.863 9.24406 136.227 9.72619C135.591 10.1905 135.184 10.9047 135.007 11.869H141.554C141.501 10.994 141.183 10.2976 140.6 9.77974C140.017 9.26192 139.292 9.00301 138.427 9.00301Z" fill="#A6A6A4"/>
  <path d="M10.3337 0.710278V9.18612C10.3337 10.1535 9.55761 10.9378 8.60027 10.9378H0.212753V7.43448H4.41083L0 2.9772L2.45138 0.5L6.86688 4.96203V0.710278H10.3337Z" fill="#A6A6A4"/>
  <path d="M20.5728 11.0577H12.1853C11.228 11.0577 10.4519 11.8419 10.4519 12.8094V21.2852H13.9188V17.0425L18.3298 21.5L20.7811 19.0229L16.3658 14.5611H20.5728V11.0577Z" fill="#A6A6A4"/>
</svg>